<mxfile host="app.diagrams.net" agent="Mozilla/5.0 (Windows NT 10.0; Win64; x64; rv:137.0) Gecko/20100101 Firefox/137.0" version="26.2.12">
  <diagram name="Page-1" id="y5YR8cmAiukMwo3ruBmM">
    <mxGraphModel dx="2380" dy="2421" grid="1" gridSize="10" guides="1" tooltips="1" connect="1" arrows="1" fold="1" page="1" pageScale="1" pageWidth="827" pageHeight="1169" math="0" shadow="0">
      <root>
        <mxCell id="0" />
        <mxCell id="1" parent="0" />
        <mxCell id="YnXwEp5NUmMRk1qSZFUg-98" value="Infrastructure" style="whiteSpace=wrap;strokeWidth=2;fillColor=#dae8fc;strokeColor=#6c8ebf;" vertex="1" parent="1">
          <mxGeometry x="775" y="830" width="840" height="250" as="geometry" />
        </mxCell>
        <mxCell id="YnXwEp5NUmMRk1qSZFUg-99" value="Backend (Spring Boot 3.x)" style="whiteSpace=wrap;strokeWidth=2;fillColor=#d5e8d4;strokeColor=#82b366;" vertex="1" parent="1">
          <mxGeometry x="710" y="149" width="992" height="641" as="geometry" />
        </mxCell>
        <mxCell id="YnXwEp5NUmMRk1qSZFUg-100" value="Core Services" style="whiteSpace=wrap;strokeWidth=2;" vertex="1" parent="1">
          <mxGeometry x="750" y="490" width="923" height="270" as="geometry" />
        </mxCell>
        <mxCell id="YnXwEp5NUmMRk1qSZFUg-101" value="Modules Fonctionnels" style="whiteSpace=wrap;strokeWidth=2;" vertex="1" parent="1">
          <mxGeometry x="750" y="174" width="923" height="246" as="geometry" />
        </mxCell>
        <mxCell id="YnXwEp5NUmMRk1qSZFUg-111" value="Service d&#39;Authentification" style="whiteSpace=wrap;strokeWidth=2;" vertex="1" parent="1">
          <mxGeometry x="1390" y="310" width="250" height="54" as="geometry" />
        </mxCell>
        <mxCell id="YnXwEp5NUmMRk1qSZFUg-112" value="Service de Réservation" style="whiteSpace=wrap;strokeWidth=2;" vertex="1" parent="1">
          <mxGeometry x="802" y="310" width="223" height="54" as="geometry" />
        </mxCell>
        <mxCell id="YnXwEp5NUmMRk1qSZFUg-113" value="Gestion Utilisateur" style="whiteSpace=wrap;strokeWidth=2;" vertex="1" parent="1">
          <mxGeometry x="800" y="211" width="225" height="54" as="geometry" />
        </mxCell>
        <mxCell id="YnXwEp5NUmMRk1qSZFUg-114" value="Service de Paiement" style="whiteSpace=wrap;strokeWidth=2;" vertex="1" parent="1">
          <mxGeometry x="1114" y="211" width="206" height="54" as="geometry" />
        </mxCell>
        <mxCell id="YnXwEp5NUmMRk1qSZFUg-116" value="Service de Messagerie" style="whiteSpace=wrap;strokeWidth=2;" vertex="1" parent="1">
          <mxGeometry x="1390" y="211" width="249" height="54" as="geometry" />
        </mxCell>
        <mxCell id="YnXwEp5NUmMRk1qSZFUg-119" value="WebSocket Server&#xa;STOMP" style="whiteSpace=wrap;strokeWidth=2;" vertex="1" parent="1">
          <mxGeometry x="1390" y="640" width="230" height="54" as="geometry" />
        </mxCell>
        <mxCell id="YnXwEp5NUmMRk1qSZFUg-120" value="Persistance&#xa;Spring Data JPA" style="whiteSpace=wrap;strokeWidth=2;" vertex="1" parent="1">
          <mxGeometry x="830" y="640" width="260" height="78" as="geometry" />
        </mxCell>
        <mxCell id="YnXwEp5NUmMRk1qSZFUg-121" value="Message Broker&#xa;RabbitMQ" style="whiteSpace=wrap;strokeWidth=2;" vertex="1" parent="1">
          <mxGeometry x="1295" y="870" width="253" height="54" as="geometry" />
        </mxCell>
        <mxCell id="YnXwEp5NUmMRk1qSZFUg-122" value="Base de données&#xa;MySQL/MariaDB" style="shape=cylinder3;boundedLbl=1;backgroundOutline=1;size=10;strokeWidth=2;whiteSpace=wrap;" vertex="1" parent="1">
          <mxGeometry x="865" y="860" width="215" height="100" as="geometry" />
        </mxCell>
        <mxCell id="YnXwEp5NUmMRk1qSZFUg-123" value="Conteneurisation&#xa;Docker" style="whiteSpace=wrap;strokeWidth=2;" vertex="1" parent="1">
          <mxGeometry x="1295" y="970" width="253" height="54" as="geometry" />
        </mxCell>
        <mxCell id="YnXwEp5NUmMRk1qSZFUg-124" value="CI/CD&#xa;GitHub Actions" style="whiteSpace=wrap;strokeWidth=2;" vertex="1" parent="1">
          <mxGeometry x="865" y="990" width="223" height="54" as="geometry" />
        </mxCell>
        <mxCell id="YnXwEp5NUmMRk1qSZFUg-135" value="" style="curved=1;startArrow=none;endArrow=block;exitX=0.73;exitY=1;entryX=0.5;entryY=0;rounded=0;entryDx=0;entryDy=0;" edge="1" parent="1" source="YnXwEp5NUmMRk1qSZFUg-111" target="YnXwEp5NUmMRk1qSZFUg-117">
          <mxGeometry relative="1" as="geometry">
            <Array as="points">
              <mxPoint x="1590" y="450" />
            </Array>
          </mxGeometry>
        </mxCell>
        <mxCell id="YnXwEp5NUmMRk1qSZFUg-136" value="" style="curved=1;startArrow=none;endArrow=block;exitX=0;exitY=1;entryX=0.75;entryY=0;rounded=0;entryDx=0;entryDy=0;exitDx=0;exitDy=0;" edge="1" parent="1" source="YnXwEp5NUmMRk1qSZFUg-111" target="YnXwEp5NUmMRk1qSZFUg-118">
          <mxGeometry relative="1" as="geometry">
            <Array as="points">
              <mxPoint x="1350" y="470" />
            </Array>
          </mxGeometry>
        </mxCell>
        <mxCell id="YnXwEp5NUmMRk1qSZFUg-137" value="" style="curved=1;startArrow=none;endArrow=block;exitX=1;exitY=1;entryX=0.75;entryY=0;rounded=0;entryDx=0;entryDy=0;exitDx=0;exitDy=0;" edge="1" parent="1" source="YnXwEp5NUmMRk1qSZFUg-112" target="YnXwEp5NUmMRk1qSZFUg-118">
          <mxGeometry relative="1" as="geometry">
            <Array as="points" />
          </mxGeometry>
        </mxCell>
        <mxCell id="YnXwEp5NUmMRk1qSZFUg-138" value="" style="curved=1;startArrow=none;endArrow=block;exitX=1;exitY=1;entryX=0.75;entryY=0;rounded=0;entryDx=0;entryDy=0;exitDx=0;exitDy=0;" edge="1" parent="1" source="YnXwEp5NUmMRk1qSZFUg-113" target="YnXwEp5NUmMRk1qSZFUg-118">
          <mxGeometry relative="1" as="geometry">
            <Array as="points">
              <mxPoint x="1060" y="390" />
            </Array>
          </mxGeometry>
        </mxCell>
        <mxCell id="YnXwEp5NUmMRk1qSZFUg-141" value="" style="curved=1;startArrow=none;endArrow=block;exitX=0;exitY=1;entryX=0.75;entryY=0;rounded=0;exitDx=0;exitDy=0;entryDx=0;entryDy=0;" edge="1" parent="1" source="YnXwEp5NUmMRk1qSZFUg-116" target="YnXwEp5NUmMRk1qSZFUg-118">
          <mxGeometry relative="1" as="geometry">
            <Array as="points">
              <mxPoint x="1400" y="380" />
            </Array>
          </mxGeometry>
        </mxCell>
        <mxCell id="YnXwEp5NUmMRk1qSZFUg-145" value="" style="curved=1;startArrow=none;endArrow=block;exitX=0.5;exitY=1;entryX=0.5;entryY=0;rounded=0;exitDx=0;exitDy=0;" edge="1" parent="1" source="YnXwEp5NUmMRk1qSZFUg-118" target="YnXwEp5NUmMRk1qSZFUg-120">
          <mxGeometry relative="1" as="geometry">
            <Array as="points" />
          </mxGeometry>
        </mxCell>
        <mxCell id="YnXwEp5NUmMRk1qSZFUg-148" value="" style="curved=1;startArrow=none;endArrow=block;exitX=0.42;exitY=1;entryX=0.45;entryY=0;rounded=0;" edge="1" parent="1" source="YnXwEp5NUmMRk1qSZFUg-117" target="YnXwEp5NUmMRk1qSZFUg-119">
          <mxGeometry relative="1" as="geometry">
            <Array as="points">
              <mxPoint x="1491" y="505" />
            </Array>
          </mxGeometry>
        </mxCell>
        <mxCell id="YnXwEp5NUmMRk1qSZFUg-149" value="" style="curved=1;startArrow=none;endArrow=block;exitX=0.5;exitY=1;entryX=0.5;entryY=0;rounded=0;" edge="1" parent="1" source="YnXwEp5NUmMRk1qSZFUg-119" target="YnXwEp5NUmMRk1qSZFUg-121">
          <mxGeometry relative="1" as="geometry">
            <Array as="points" />
          </mxGeometry>
        </mxCell>
        <mxCell id="YnXwEp5NUmMRk1qSZFUg-150" value="" style="curved=1;startArrow=none;endArrow=block;exitX=0.5;exitY=1;entryX=0.5;entryY=0;rounded=0;" edge="1" parent="1" source="YnXwEp5NUmMRk1qSZFUg-120" target="YnXwEp5NUmMRk1qSZFUg-122">
          <mxGeometry relative="1" as="geometry">
            <Array as="points" />
          </mxGeometry>
        </mxCell>
        <mxCell id="YnXwEp5NUmMRk1qSZFUg-151" value="" style="curved=1;dashed=1;dashPattern=2 3;startArrow=none;endArrow=block;exitX=0;exitY=0.5;entryX=1;entryY=0.25;rounded=0;entryDx=0;entryDy=0;exitDx=0;exitDy=0;" edge="1" parent="1" source="YnXwEp5NUmMRk1qSZFUg-117" target="YnXwEp5NUmMRk1qSZFUg-118">
          <mxGeometry relative="1" as="geometry">
            <Array as="points">
              <mxPoint x="1330" y="559" />
            </Array>
          </mxGeometry>
        </mxCell>
        <mxCell id="YnXwEp5NUmMRk1qSZFUg-102" value="Frontend (Angular 18)" style="whiteSpace=wrap;strokeWidth=2;fillColor=#f8cecc;strokeColor=#b85450;" vertex="1" parent="1">
          <mxGeometry x="741" y="-280" width="930" height="387" as="geometry" />
        </mxCell>
        <mxCell id="YnXwEp5NUmMRk1qSZFUg-103" value="Angular Core" style="whiteSpace=wrap;strokeWidth=2;" vertex="1" parent="1">
          <mxGeometry x="1119" y="-67.5" width="152" height="54" as="geometry" />
        </mxCell>
        <mxCell id="YnXwEp5NUmMRk1qSZFUg-105" value="État &amp; Async: RxJS" style="whiteSpace=wrap;strokeWidth=2;" vertex="1" parent="1">
          <mxGeometry x="841" y="-78" width="200" height="54" as="geometry" />
        </mxCell>
        <mxCell id="YnXwEp5NUmMRk1qSZFUg-106" value="Store Global: NgRx" style="whiteSpace=wrap;strokeWidth=2;" vertex="1" parent="1">
          <mxGeometry x="1379" y="-90" width="200" height="54" as="geometry" />
        </mxCell>
        <mxCell id="YnXwEp5NUmMRk1qSZFUg-107" value="Internationalisation" style="whiteSpace=wrap;strokeWidth=2;" vertex="1" parent="1">
          <mxGeometry x="841" y="-234" width="201" height="54" as="geometry" />
        </mxCell>
        <mxCell id="YnXwEp5NUmMRk1qSZFUg-109" value="REST Client&#xa;HttpClientModule" style="whiteSpace=wrap;strokeWidth=2;" vertex="1" parent="1">
          <mxGeometry x="838" y="-4" width="203" height="78" as="geometry" />
        </mxCell>
        <mxCell id="YnXwEp5NUmMRk1qSZFUg-110" value="Auth Client&#xa;JWT Management" style="whiteSpace=wrap;strokeWidth=2;" vertex="1" parent="1">
          <mxGeometry x="1379" y="-4" width="200" height="78" as="geometry" />
        </mxCell>
        <mxCell id="YnXwEp5NUmMRk1qSZFUg-126" value="" style="curved=1;startArrow=none;endArrow=block;exitX=0;exitY=0.5;entryX=1;entryY=0.5;rounded=0;exitDx=0;exitDy=0;entryDx=0;entryDy=0;" edge="1" parent="1" source="YnXwEp5NUmMRk1qSZFUg-103" target="YnXwEp5NUmMRk1qSZFUg-105">
          <mxGeometry relative="1" as="geometry">
            <Array as="points">
              <mxPoint x="1079" />
            </Array>
          </mxGeometry>
        </mxCell>
        <mxCell id="YnXwEp5NUmMRk1qSZFUg-127" value="" style="curved=1;startArrow=none;endArrow=block;entryX=0;entryY=0.5;rounded=0;entryDx=0;entryDy=0;exitX=1;exitY=0.5;exitDx=0;exitDy=0;" edge="1" parent="1" source="YnXwEp5NUmMRk1qSZFUg-103" target="YnXwEp5NUmMRk1qSZFUg-106">
          <mxGeometry relative="1" as="geometry">
            <Array as="points">
              <mxPoint x="1329" y="-100" />
            </Array>
            <mxPoint x="1179" y="-240" as="sourcePoint" />
          </mxGeometry>
        </mxCell>
        <mxCell id="YnXwEp5NUmMRk1qSZFUg-128" value="" style="curved=1;startArrow=none;endArrow=block;exitX=0;exitY=0.5;entryX=1;entryY=0.5;rounded=0;exitDx=0;exitDy=0;entryDx=0;entryDy=0;" edge="1" parent="1" source="YnXwEp5NUmMRk1qSZFUg-103" target="YnXwEp5NUmMRk1qSZFUg-107">
          <mxGeometry relative="1" as="geometry">
            <Array as="points">
              <mxPoint x="1121" y="-190" />
            </Array>
          </mxGeometry>
        </mxCell>
        <mxCell id="YnXwEp5NUmMRk1qSZFUg-129" value="" style="curved=1;startArrow=none;endArrow=block;exitX=1;exitY=0.5;entryX=0;entryY=0.5;rounded=0;entryDx=0;entryDy=0;exitDx=0;exitDy=0;" edge="1" parent="1" source="YnXwEp5NUmMRk1qSZFUg-103" target="YnXwEp5NUmMRk1qSZFUg-108">
          <mxGeometry relative="1" as="geometry">
            <Array as="points">
              <mxPoint x="1289" y="-180" />
            </Array>
          </mxGeometry>
        </mxCell>
        <mxCell id="YnXwEp5NUmMRk1qSZFUg-130" value="" style="curved=1;startArrow=none;endArrow=block;entryX=1;entryY=0.5;rounded=0;entryDx=0;entryDy=0;exitX=0;exitY=0.5;exitDx=0;exitDy=0;" edge="1" parent="1" source="YnXwEp5NUmMRk1qSZFUg-103" target="YnXwEp5NUmMRk1qSZFUg-109">
          <mxGeometry relative="1" as="geometry">
            <Array as="points">
              <mxPoint x="1099" y="50" />
            </Array>
            <mxPoint x="1119" y="-50" as="sourcePoint" />
          </mxGeometry>
        </mxCell>
        <mxCell id="YnXwEp5NUmMRk1qSZFUg-131" value="" style="curved=1;startArrow=none;endArrow=block;entryX=0;entryY=0.5;rounded=0;entryDx=0;entryDy=0;exitX=1;exitY=0.5;exitDx=0;exitDy=0;" edge="1" parent="1" source="YnXwEp5NUmMRk1qSZFUg-103" target="YnXwEp5NUmMRk1qSZFUg-110">
          <mxGeometry relative="1" as="geometry">
            <Array as="points">
              <mxPoint x="1289" y="30" />
            </Array>
            <mxPoint x="1181" y="-260" as="sourcePoint" />
          </mxGeometry>
        </mxCell>
        <mxCell id="YnXwEp5NUmMRk1qSZFUg-132" value="" style="curved=1;startArrow=none;endArrow=block;exitX=1;exitY=1;entryX=0.68;entryY=0;rounded=0;exitDx=0;exitDy=0;" edge="1" parent="1" source="YnXwEp5NUmMRk1qSZFUg-108" target="YnXwEp5NUmMRk1qSZFUg-119">
          <mxGeometry relative="1" as="geometry">
            <Array as="points">
              <mxPoint x="1980" y="360" />
            </Array>
          </mxGeometry>
        </mxCell>
        <mxCell id="YnXwEp5NUmMRk1qSZFUg-133" value="" style="curved=1;startArrow=none;endArrow=block;exitX=0;exitY=0.5;entryX=0;entryY=0.5;rounded=0;exitDx=0;exitDy=0;entryDx=0;entryDy=0;" edge="1" parent="1" source="YnXwEp5NUmMRk1qSZFUg-109" target="YnXwEp5NUmMRk1qSZFUg-118">
          <mxGeometry relative="1" as="geometry">
            <Array as="points">
              <mxPoint x="550" y="220" />
            </Array>
          </mxGeometry>
        </mxCell>
        <mxCell id="YnXwEp5NUmMRk1qSZFUg-134" value="" style="curved=1;startArrow=none;endArrow=block;exitX=1;exitY=1;entryX=1;entryY=0.12;rounded=0;exitDx=0;exitDy=0;" edge="1" parent="1" source="YnXwEp5NUmMRk1qSZFUg-110" target="YnXwEp5NUmMRk1qSZFUg-117">
          <mxGeometry relative="1" as="geometry">
            <Array as="points">
              <mxPoint x="1740" y="130" />
              <mxPoint x="1770" y="390" />
            </Array>
          </mxGeometry>
        </mxCell>
        <mxCell id="YnXwEp5NUmMRk1qSZFUg-156" value="" style="curved=1;startArrow=none;endArrow=block;exitX=0;exitY=1;entryX=0.75;entryY=0;rounded=0;entryDx=0;entryDy=0;exitDx=0;exitDy=0;" edge="1" parent="1" source="YnXwEp5NUmMRk1qSZFUg-115" target="YnXwEp5NUmMRk1qSZFUg-118">
          <mxGeometry relative="1" as="geometry">
            <Array as="points" />
            <mxPoint x="995" y="265" as="sourcePoint" />
            <mxPoint x="957" y="640" as="targetPoint" />
          </mxGeometry>
        </mxCell>
        <mxCell id="YnXwEp5NUmMRk1qSZFUg-118" value="REST Controllers&#xa;Spring Web MVC" style="whiteSpace=wrap;strokeWidth=2;" vertex="1" parent="1">
          <mxGeometry x="830" y="520" width="260" height="78" as="geometry" />
        </mxCell>
        <mxCell id="YnXwEp5NUmMRk1qSZFUg-157" value="" style="curved=1;startArrow=none;endArrow=block;exitX=1;exitY=1;entryX=0.75;entryY=0;rounded=0;exitDx=0;exitDy=0;entryDx=0;entryDy=0;" edge="1" parent="1" source="YnXwEp5NUmMRk1qSZFUg-116" target="YnXwEp5NUmMRk1qSZFUg-117">
          <mxGeometry relative="1" as="geometry">
            <Array as="points">
              <mxPoint x="1710" y="370" />
            </Array>
            <mxPoint x="1513" y="265" as="sourcePoint" />
            <mxPoint x="1517" y="554" as="targetPoint" />
          </mxGeometry>
        </mxCell>
        <mxCell id="YnXwEp5NUmMRk1qSZFUg-117" value="Spring Security + JWT" style="whiteSpace=wrap;strokeWidth=2;" vertex="1" parent="1">
          <mxGeometry x="1390" y="520" width="230" height="54" as="geometry" />
        </mxCell>
        <mxCell id="YnXwEp5NUmMRk1qSZFUg-158" value="" style="curved=1;startArrow=none;endArrow=block;exitX=0;exitY=1;entryX=0.75;entryY=0;rounded=0;entryDx=0;entryDy=0;exitDx=0;exitDy=0;" edge="1" parent="1" source="YnXwEp5NUmMRk1qSZFUg-114" target="YnXwEp5NUmMRk1qSZFUg-118">
          <mxGeometry relative="1" as="geometry">
            <Array as="points" />
            <mxPoint x="1182" y="265" as="sourcePoint" />
            <mxPoint x="1025" y="520" as="targetPoint" />
          </mxGeometry>
        </mxCell>
        <mxCell id="YnXwEp5NUmMRk1qSZFUg-115" value="Support Client" style="whiteSpace=wrap;strokeWidth=2;" vertex="1" parent="1">
          <mxGeometry x="1114" y="310" width="206" height="54" as="geometry" />
        </mxCell>
        <mxCell id="YnXwEp5NUmMRk1qSZFUg-108" value="WebSocket Client&#xa;SockJS" style="whiteSpace=wrap;strokeWidth=2;" vertex="1" parent="1">
          <mxGeometry x="1384" y="-200" width="200" height="74" as="geometry" />
        </mxCell>
        <mxCell id="YnXwEp5NUmMRk1qSZFUg-160" value="" style="curved=1;startArrow=none;endArrow=block;entryX=1;entryY=0.5;rounded=0;entryDx=0;entryDy=0;exitX=0;exitY=0.5;exitDx=0;exitDy=0;" edge="1" parent="1" source="YnXwEp5NUmMRk1qSZFUg-103" target="YnXwEp5NUmMRk1qSZFUg-104">
          <mxGeometry relative="1" as="geometry">
            <Array as="points">
              <mxPoint x="1089" y="-110" />
            </Array>
            <mxPoint x="1119" y="-40" as="sourcePoint" />
            <mxPoint x="642" y="-39" as="targetPoint" />
          </mxGeometry>
        </mxCell>
        <mxCell id="YnXwEp5NUmMRk1qSZFUg-104" value="Angular Material UI" style="whiteSpace=wrap;strokeWidth=2;" vertex="1" parent="1">
          <mxGeometry x="842" y="-156" width="200" height="54" as="geometry" />
        </mxCell>
      </root>
    </mxGraphModel>
  </diagram>
</mxfile>
